:SAMPLES-PER-SECOND 30
:FULLY-SPECIFIED
:DEGREES
32
root  -78.0141 17.6181 -4.39611 -95.3506 76.7194 -72.0684
RightUpLeg  -81.0222 -7.25752 17.9085
RightLeg  88.5387 10.9133 1.50124
RightFoot  -14.3734 0.0413188 4.69073
RightToes  5.82075e-010 -1.59028e-015 9.93923e-017
Spine  63.4074 -4.7754 5.37285
Spine1  10.7962 0.552645 -2.75101
HEad  -29.6527 3.55035 4.06573
LeftShoulder1  9.93923e-017 0 1.22299e-017
LeftArm  -9.42807 -54.9379 -66.0096
LeftForeArm  -135.216 -49.3763 167.927
LeftHand  0.829609 6.40882 10.7306
RightShoulder  1.98785e-016 -4.96962e-017 1.55301e-017
RightArm  -1.63616 42.404 67.2268
RightForeArm  -95.6982 45.3413 -155.864
RightHand  4.98006 -18.7104 -28.0068
LeftUpLeg  -54.1364 -3.17031 13.8537
LeftLeg  139.137 -12.3699 -2.70993
LeftFoot  -28.7791 -1.52501 -10.6389
LeftToes  1.8463e-010 2.29954e-012 -3.51709e-011
33
root  -76.975 16.5906 -4.03176 -105.847 78.1491 -82.041
RightUpLeg  -82.594 -6.97169 15.3331
RightLeg  89.6719 11.0712 -2.61994
RightFoot  -7.01873 -0.118139 2.52084
RightToes  5.82075e-010 -1.59028e-015 9.93923e-017
Spine  62.8843 -4.50643 4.28846
Spine1  11.1282 -0.123038 -1.33348
HEad  -29.8081 2.59774 4.14216
LeftShoulder1  9.93923e-017 0 1.22299e-017
LeftArm  -8.07633 -55.3046 -68.236
LeftForeArm  -135.247 -49.3432 167.954
LeftHand  0.834361 6.43026 10.77
RightShoulder  1.98785e-016 -4.96962e-017 1.55301e-017
RightArm  -1.75808 42.0728 67.1602
RightForeArm  -94.6393 45.2318 -155.927
RightHand  5.09477 -18.9427 -28.27
LeftUpLeg  -52.3157 -3.87858 14.4594
LeftLeg  143.749 -10.4945 -3.97391
LeftFoot  -30.2645 -1.55609 -9.84195
LeftToes  1.8463e-010 2.29954e-012 -3.51709e-011
34
root  -75.7207 15.6859 -3.59172 -121.111 79.2948 -96.6138
RightUpLeg  -85.0458 -6.86125 12.7689
RightLeg  94.3373 11.799 -5.92482
RightFoot  -2.08913 -0.0131532 0.180876
RightToes  5.82075e-010 -1.59028e-015 9.93923e-017
Spine  62.3708 -4.39199 2.90161
Spine1  11.3187 -0.613429 -0.42124
HEad  -30.4354 1.7504 5.17245
LeftShoulder1  9.93923e-017 0 1.22299e-017
LeftArm  -7.40896 -56.3424 -69.6007
LeftForeArm  -134.242 -49.3118 167.904
LeftHand  0.782949 6.20454 10.4848
RightShoulder  1.98785e-016 -4.96962e-017 1.55301e-017
RightArm  -3.02952 42.6025 66.372
RightForeArm  -93.6328 45.3472 -155.714
RightHand  5.00705 -18.9039 -27.6783
LeftUpLeg  -47.4179 -5.09703 17.1757
LeftLeg  147.61 -5.19855 -6.89031
LeftFoot  -34.2868 -1.4336 -7.27264
LeftToes  1.8463e-010 2.29954e-012 -3.51709e-011
35
root  -74.6038 15.1152 -3.16683 -135.962 79.3127 -110.234
RightUpLeg  -86.2367 -7.01423 10.9592
RightLeg  99.5043 12.6862 -7.12746
RightFoot  -2.30086 0.0431894 -0.473317
RightToes  5.82075e-010 -1.59028e-015 9.93923e-017
Spine  63.3496 -4.82923 2.32459
Spine1  11.0014 -0.852673 -0.282782
HEad  -31.7739 1.09219 6.42624
LeftShoulder1  9.93923e-017 0 1.22299e-017
LeftArm  -7.31391 -58.0094 -70.1927
LeftForeArm  -132.178 -49.5367 167.577
LeftHand  0.723143 5.94644 10.37
RightShoulder  1.98785e-016 -4.96962e-017 1.55301e-017
RightArm  -4.09016 43.497 65.6928
RightForeArm  -92.5138 45.2637 -155.745
RightHand  4.9326 -18.7928 -27.399
LeftUpLeg  -41.7783 -7.35839 22.5374
LeftLeg  149.385 2.90246 -11.0167
LeftFoot  -36.7606 -0.720801 -3.00915
LeftToes  1.8463e-010 2.29954e-012 -3.51709e-011
36
root  -73.6336 14.9091 -2.73924 -149.532 79.3932 -124.269
RightUpLeg  -87.75 -6.88513 9.11334
RightLeg  103.366 13.4462 -7.70867
RightFoot  -4.78473 0.0222586 -0.28333
RightToes  5.82075e-010 -1.59028e-015 9.93923e-017
Spine  63.9947 -4.97613 1.77173
Spine1  9.96365 -1.08785 -0.0696234
HEad  -33.3971 0.416926 6.67065
LeftShoulder1  9.93923e-017 0 1.22299e-017
LeftArm  -7.30858 -59.5575 -70.6572
LeftForeArm  -130.299 -49.8994 167.152
LeftHand  0.668432 5.73199 10.6857
RightShoulder  1.98785e-016 -4.96962e-017 1.55301e-017
RightArm  -4.32518 44.3726 65.3391
RightForeArm  -92.1294 44.9445 -156.121
RightHand  4.88421 -18.5854 -27.6122
LeftUpLeg  -39.0823 -8.44115 26.8254
LeftLeg  149.264 9.06288 -14.3033
LeftFoot  -35.9532 0.134846 1.23064
LeftToes  1.8463e-010 2.29954e-012 -3.51709e-011
37
root  -72.7776 15.0555 -2.33561 -159.847 79.0751 -136.225
RightUpLeg  -88.8856 -6.95212 8.05593
RightLeg  105.354 14.2324 -9.01445
RightFoot  -6.30664 0.0282045 -0.47435
RightToes  5.82075e-010 -1.59028e-015 9.93923e-017
Spine  64.2561 -5.0544 1.66333
Spine1  8.64896 -1.3198 0.617027
HEad  -34.6326 -0.206128 5.84178
LeftShoulder1  9.93923e-017 0 1.22299e-017
LeftArm  -7.26768 -60.488 -71.0421
LeftForeArm  -129.505 -49.9936 167.018
LeftHand  0.600488 5.46183 10.9202
RightShoulder  1.98785e-016 -4.96962e-017 1.55301e-017
RightArm  -4.09981 45.217 65.241
RightForeArm  -92.1596 44.8862 -156.194
RightHand  4.83355 -18.344 -27.9151
LeftUpLeg  -38.602 -8.05628 29.4267
LeftLeg  148.106 11.7431 -16.279
LeftFoot  -33.9518 0.599376 3.86629
LeftToes  1.8463e-010 2.29954e-012 -3.51709e-011
38
root  -71.9923 15.511 -1.96644 -166.294 78.5626 -144.665
RightUpLeg  -89.1373 -7.14578 7.91729
RightLeg  106.114 14.8754 -10.3692
RightFoot  -7.05127 0.0488009 -0.920558
RightToes  5.82075e-010 -1.59028e-015 9.93923e-017
Spine  63.9599 -4.99155 1.84817
Spine1  8.11611 -1.54827 1.77062
HEad  -35.0903 -0.423588 5.13213
LeftShoulder1  9.93923e-017 0 1.22299e-017
LeftArm  -7.53294 -61.0217 -70.7604
LeftForeArm  -129.465 -49.7245 167.229
LeftHand  0.544872 5.20428 10.5823
RightShoulder  1.98785e-016 -4.96962e-017 1.55301e-017
RightArm  -4.5109 46.1924 65.0462
RightForeArm  -91.6664 45.3623 -155.564
RightHand  4.76916 -18.1849 -27.8563
LeftUpLeg  -38.7957 -7.16944 30.7828
LeftLeg  146.008 12.8658 -18.1
LeftFoot  -31.5438 0.618378 4.45859
LeftToes  1.8463e-010 2.29954e-012 -3.51709e-011
39
root  -71.187 16.2123 -1.6273 -171.773 78.3441 -152.067
RightUpLeg  -88.2645 -7.20706 7.79213
RightLeg  106.468 15.1153 -10.7952
RightFoot  -8.57232 0.0435814 -1.10166
RightToes  5.82075e-010 -1.59028e-015 9.93923e-017
Spine  63.2255 -4.7156 1.74605
Spine1  8.31881 -1.90361 2.72057
HEad  -34.7394 -0.159302 5.23004
LeftShoulder1  9.93923e-017 0 1.22299e-017
LeftArm  -8.27388 -61.3601 -69.5576
LeftForeArm  -129.559 -49.4515 167.451
LeftHand  0.550129 5.1834 10.0022
RightShoulder  1.98785e-016 -4.96962e-017 1.55301e-017
RightArm  -5.41566 46.9871 64.8096
RightForeArm  -90.9948 45.8423 -154.901
RightHand  4.71552 -18.2039 -27.3428
LeftUpLeg  -38.5297 -6.70374 30.6089
LeftLeg  143.106 12.7649 -19.8473
LeftFoot  -28.0013 0.383934 3.6281
LeftToes  1.8463e-010 2.29954e-012 -3.51709e-011
